<?xml version="1.0" encoding="utf-8"?>
<!-- Generator: Adobe Illustrator 21.0.2, SVG Export Plug-In . SVG Version: 6.00 Build 0)  -->
<svg version="1.1" id="Layer_1" xmlns="http://www.w3.org/2000/svg" xmlns:xlink="http://www.w3.org/1999/xlink" x="0px" y="0px"
	 viewBox="0 0 18 18" style="enable-background:new 0 0 18 18;" xml:space="preserve">
<style type="text/css">
	.st0{fill:none;}
	.st1{fill-rule:evenodd;clip-rule:evenodd;fill:none;}
	.st2{clip-path:url(#SVGID_4_);}
	.st3{clip-path:url(#SVGID_5_);}
	.st4{clip-path:url(#SVGID_6_);fill:#3E82F1;}
	.st5{clip-path:url(#SVGID_10_);}
	.st6{clip-path:url(#SVGID_11_);}
	.st7{clip-path:url(#SVGID_12_);fill:#32A753;}
	.st8{clip-path:url(#SVGID_14_);fill:#F9BB00;}
	.st9{clip-path:url(#SVGID_16_);fill:#E74133;}
</style>
<g>
	<rect x="-14" y="-14" class="st0" width="46" height="46"/>
	<path class="st1" d="M-15-15h48v48h-48V-15z M-15-15"/>
	<g>
		<defs>
			<rect id="SVGID_1_" x="-14" y="-14" width="46" height="46"/>
		</defs>
		<defs>
			<path id="SVGID_2_" d="M17.6,9.2c0-0.6-0.1-1.3-0.2-1.8H9v3.5h4.8C13.6,12,13,12.9,12,13.6v2.3H15C16.7,14.3,17.6,11.9,17.6,9.2
				L17.6,9.2L17.6,9.2z M17.6,9.2"/>
		</defs>
		<defs>
			<path id="SVGID_3_" d="M-15-15h48v48h-48V-15z M-15-15"/>
		</defs>
		<clipPath id="SVGID_4_">
			<use xlink:href="#SVGID_1_"  style="overflow:visible;"/>
		</clipPath>
		<clipPath id="SVGID_5_" class="st2">
			<use xlink:href="#SVGID_2_"  style="overflow:visible;"/>
		</clipPath>
		<clipPath id="SVGID_6_" class="st3">
			<use xlink:href="#SVGID_3_"  style="overflow:visible;"/>
		</clipPath>
		<rect x="4" y="2.4" class="st4" width="18.6" height="18.5"/>
	</g>
	<g>
		<defs>
			<rect id="SVGID_7_" x="-14" y="-14" width="46" height="46"/>
		</defs>
		<defs>
			<path id="SVGID_8_" d="M9,18c2.4,0,4.5-0.8,6-2.2L12,13.6c-0.8,0.5-1.8,0.9-3,0.9c-2.3,0-4.3-1.6-5-3.7H1V13C2.4,16,5.5,18,9,18
				L9,18L9,18z M9,18"/>
		</defs>
		<defs>
			<path id="SVGID_9_" d="M-15-15h48v48h-48V-15z M-15-15"/>
		</defs>
		<clipPath id="SVGID_10_">
			<use xlink:href="#SVGID_7_"  style="overflow:visible;"/>
		</clipPath>
		<clipPath id="SVGID_11_" class="st5">
			<use xlink:href="#SVGID_8_"  style="overflow:visible;"/>
		</clipPath>
		<clipPath id="SVGID_12_" class="st6">
			<use xlink:href="#SVGID_9_"  style="overflow:visible;"/>
		</clipPath>
		<rect x="-4" y="5.7" class="st7" width="24" height="17.3"/>
	</g>
	<g>
		<defs>
			<path id="SVGID_13_" d="M4,10.7C3.8,10.2,3.7,9.6,3.7,9c0-0.6,0.1-1.2,0.3-1.7V5H1C0.3,6.2,0,7.5,0,9s0.3,2.8,1,4L4,10.7L4,10.7
				L4,10.7z M4,10.7"/>
		</defs>
		<clipPath id="SVGID_14_">
			<use xlink:href="#SVGID_13_"  style="overflow:visible;"/>
		</clipPath>
		<rect x="-5" y="0" class="st8" width="14" height="18.1"/>
	</g>
	<g>
		<defs>
			<path id="SVGID_15_" d="M9,3.6c1.3,0,2.5,0.5,3.4,1.3L15,2.3C13.5,0.9,11.4,0,9,0C5.5,0,2.4,2,1,5l3,2.3C4.7,5.2,6.7,3.6,9,3.6
				L9,3.6L9,3.6z M9,3.6"/>
		</defs>
		<clipPath id="SVGID_16_">
			<use xlink:href="#SVGID_15_"  style="overflow:visible;"/>
		</clipPath>
		<rect x="-4" y="-5" class="st9" width="24.1" height="17.3"/>
	</g>
</g>
</svg>
